<?xml version="1.0" encoding="utf-8"?>
<!-- Generator: Adobe Illustrator 23.1.1, SVG Export Plug-In . SVG Version: 6.00 Build 0)  -->
<svg version="1.1" id="Layer_1" xmlns="http://www.w3.org/2000/svg" xmlns:xlink="http://www.w3.org/1999/xlink" x="0px" y="0px"
	 viewBox="0 0 1686.8 982.5" style="enable-background:new 0 0 1686.8 982.5;" xml:space="preserve">
<g>
	<g transform="translate(0.000000,511.000000) scale(0.100000,-0.100000)">
		<path d="M4860,5070.4c-424.5-9.7-519.3-39.2-591.1-179.7c-71.8-140.5-55.6-274.3,48.9-392c91.4-104.5,104.5-107.8,411.6-124.1
			l320-16.4l323.3-744.6l326.5-744.6l-258-408.2c-140.5-222-277.6-437.7-307.1-476.9l-55.6-71.8l-199.1,91.4
			c-111,48.9-342.9,127.4-519.3,173.1c-277.6,75.2-378.8,84.9-839.4,84.9c-463.8,0-558.4-9.7-849.1-84.9
			c-617.2-166.6-1159.4-476.7-1603.5-917.6C447.8,635.4,95.2-164.8,52.8-1046.6c-75.2-1642.8,1009.2-3102.6,2629.1-3533.6
			c398.5-104.5,1103.8-117.5,1541.5-26.1c1097.3,225.4,1972.5,917.8,2449.4,1936.7c71.8,153.4,130.6,293.9,130.6,313.5
			s6.5,36,13.1,36c42.5,0,868.7-199.1,960.1-231.9c163.3-55.6,548.7-22.8,725,65.3c199.3,101.3,382.1,280.8,483.4,476.9
			c104.5,202.6,133.8,584.6,62.1,783.8l-45.7,130.6L10213,723.7c666.1,1002.7,1221.5,1822.3,1231.2,1822.3
			c39.2,0,267.9-633.6,235.1-643.3c-111-39.2-581.2-382.1-783.8-578c-715.4-676.4-1087.6-1541.8-1087.6-2518.3
			c0-1727.7,1234.4-3171.1,2949.1-3445.4c346.1-55.6,1041.8-26.1,1368.4,62.1c1613.3,424.5,2704.1,1887.6,2628.9,3530.4
			c-71.8,1531.8-1120.2,2825-2619.2,3223.5c-287.5,75.2-388.6,84.9-849.1,88.1c-365.7,0-584.6-16.4-725-52.3l-202.6-48.9
			l-251.5,656.4c-137.1,362.5-352.8,859-476.9,1110.5l-225.2,450.6l646.7-13.1c542-13.1,679.3-26.1,855.7-84.9
			c254.7-84.9,362.5-176.3,362.5-320c0-160.1-91.4-245-293.9-277.6c-222.2-36-333.2-114.2-372.4-271.1
			c-42.5-166.6,39.2-333.2,199.1-398.5c218.8-91.4,689.2,48.9,898.2,271.1c48.9,48.9,127.4,179.7,176.3,284.2
			c117.6,254.7,127.4,591.1,22.8,787c-166.6,313.5-558.4,561.8-1035.3,653.2c-326.5,62.1-2060.8,71.8-2191.4,9.7
			c-98-45.7-179.7-179.7-179.7-303.7c0-45.7,111-303.7,248.2-574.8c133.8-274.3,235.1-506.2,218.8-519.3
			c-13.1-13.1-1002.5-143.7-2197.9-290.7c-1195.2-147-2217.5-274.3-2273.1-284.2l-101.3-19.6L6107.5,3679
			c-156.7,356-284.2,656.4-284.2,672.8c0,13.1,205.8,22.8,460.5,22.8c372.4,0,476.9,9.7,551.9,55.6c189.4,111,222,378.8,68.5,535.5
			l-94.6,94.6h-715.2c-392,0-741.3,6.5-777.3,9.7C5281.3,5076.9,5075.7,5076.9,4860,5070.4z M10787.6,2856.1
			c0-39.2-2289.3-3445.4-2315.5-3445.4c-19.6,0-71.8,13.1-117.6,32.7c-45.7,16.4-160.1,39.2-254.7,45.7l-166.6,13.1L7306,936
			c-581.4,1326-620.4,1430.5-555.1,1440.2c323.3,48.9,3847.1,489.8,3932.1,493.1C10738.6,2872.5,10787.6,2865.9,10787.6,2856.1z
			 M6617,766c398.5-911.1,561.8-1312.8,535.5-1329.2c-22.8-13-78.4-26.1-124.1-26.1c-75.2,0-91.4,16.4-107.8,114.2
			c-111,587.9-496.5,1283.5-973.2,1753.8c-140.5,140.5-254.7,261.2-254.7,267.9c0,26.1,336.4,545.4,346.1,535.5
			C6042.2,2075.6,6303.6,1484.5,6617,766z M4174.2,1504.1c143.7-36,323.3-91.6,398.5-127.4l140.5-62.1L3945.6,109.6
			c-849.1-1332.5-855.7-1348.8-676-1541.5c65.3-71.8,143.7-107.8,284.1-137.1c509.5-104.5,2537.5-581.2,2557.1-600.8
			c13.1-13.1-52.2-166.6-140.5-339.6c-137.3-271.1-205.8-362.5-486.6-643.5c-607.5-604.2-1299.9-871.9-2109.8-823
			c-392,26.1-659.7,94.8-1005.9,254.7c-800.2,369-1355.3,1051.6-1561.1,1913.9c-81.7,329.9-75.2,901.4,13.1,1254
			C1192.5,955.4,2672,1863.3,4174.2,1504.1z M13939.1,1500.8c1384.8-329.9,2305.7-1688.5,2093.4-3092.9
			c-143.7-953.6-721.7-1727.7-1593.7-2129.4c-349.5-163.3-617.2-228.6-1022.1-254.7c-806.6-45.7-1567.6,261.2-2145.7,865.5
			c-545.4,571.5-813.1,1293.2-767.4,2064.1c22.8,385.3,91.4,656.4,254.7,1005.9c156.9,339.6,356,620.4,604.2,859
			c241.8,228.6,561.8,444.2,597.6,401.7c16.4-16.4,251.5-610.7,522.6-1319.5c362.5-943.9,515.9-1309.6,578-1361.9
			c91.4-81.7,251.5-98,382.1-39.2c94.8,42.5,186.2,189.4,186.2,297.2c0,39.2-228.6,662.9-503,1381.4
			c-277.6,718.5-493.1,1316.1-483.4,1329.2c45.7,45.7,480.1,88.1,757.7,71.8C13553.7,1572.6,13795.3,1536.6,13939.1,1500.8z
			 M5385.8,860.6c147-98,480.1-548.7,620.4-845.8C6179.3-351,6261-618.8,6205.4-638.4c-75.2-22.8-1953.1-156.7-1969.3-137.1
			C4219.8-759.1,5268.2,913,5294.2,913C5297.7,913,5340.1,890.1,5385.8,860.6z"/>
	</g>
</g>
</svg>
