<svg id="Layer_1" data-name="Layer 1" xmlns="http://www.w3.org/2000/svg" width="260" height="40" viewBox="0 0 260 40"><defs><style>.cls-1,.cls-2{fill:#fff;}.cls-1{stroke:#fff;stroke-miterlimit:10;stroke-width:5px;}</style></defs><title>logo-hvid</title><line class="cls-1" x1="143.21" y1="8.84" x2="143.05" y2="31.16"/><path class="cls-2" d="M150.85,20.74c0-5.19,4-8.87,9.61-8.87,3.62,0,6.47,1.57,7.72,4.38l-3.88,2.09A4.29,4.29,0,0,0,160.43,16a4.41,4.41,0,0,0-4.52,4.77,4.41,4.41,0,0,0,4.52,4.77,4.23,4.23,0,0,0,3.87-2.37l3.88,2.11c-1.25,2.76-4.1,4.36-7.72,4.36C154.85,29.61,150.85,25.93,150.85,20.74Z"/><path class="cls-2" d="M187.62,22.15h-13c.48,2.14,2.3,3.46,4.93,3.46a5.84,5.84,0,0,0,4.32-1.67l2.66,2.88c-1.6,1.83-4,2.79-7.11,2.79-6,0-9.83-3.75-9.83-8.87s3.94-8.87,9.19-8.87c5.06,0,9,3.39,9,8.93C187.72,21.19,187.65,21.73,187.62,22.15Zm-13.1-2.92H183a4.31,4.31,0,0,0-8.49,0Z"/><path class="cls-2" d="M208.67,19.49v9.86h-5V20.26c0-2.79-1.28-4.07-3.49-4.07-2.4,0-4.13,1.47-4.13,4.64v8.52h-5V12.12h4.77v2a7.57,7.57,0,0,1,5.7-2.27C205.59,11.87,208.67,14.24,208.67,19.49Z"/><path class="cls-2" d="M224.3,28.52a7.13,7.13,0,0,1-4.07,1.09c-4.07,0-6.44-2.08-6.44-6.18V16.35h-2.65V12.51h2.65V8.31h5v4.2h4.29v3.84h-4.29v7a2,2,0,0,0,2.15,2.28,3.39,3.39,0,0,0,2-.64Z"/><path class="cls-2" d="M243.36,22.15h-13c.48,2.14,2.31,3.46,4.93,3.46a5.86,5.86,0,0,0,4.33-1.67l2.66,2.88c-1.6,1.83-4,2.79-7.11,2.79-6,0-9.84-3.75-9.84-8.87s3.94-8.87,9.2-8.87c5.06,0,9,3.39,9,8.93C243.45,21.19,243.39,21.73,243.36,22.15Zm-13.1-2.92h8.49a4.31,4.31,0,0,0-8.49,0Z"/><path class="cls-2" d="M257.49,11.87v4.61c-.42,0-.74-.07-1.12-.07-2.76,0-4.58,1.51-4.58,4.81v8.13h-5V12.12h4.77V14.4C252.78,12.73,254.83,11.87,257.49,11.87Z"/><path class="cls-2" d="M119.37,15.51l-4,4.74h7.11Zm-71.07-.4c-5.06.63-8.17,1.52-7.89,5.14.52,6.93,20,6.09,20.13-.4C60.62,14.6,53,14.53,48.3,15.11Zm20.53,7.11c-3.78,7.51-37.15,9.14-37.51-1.58C31,9.61,65.59,8.82,68.44,18.27c4.07-6,22.44-7.57,32.68-5.53l.09,2.37S77.85,13,77.91,20.64c0,2.52,3.5,4.09,7.11,4.34a33.63,33.63,0,0,0,7.68-.37l.19-3.83-5.5,0V18.9l12.67.05,0,6.43,14.69-13.46h10.66l11.77,15.83h-9.48l-3.29-4.55H113.7l-5.38,4.55H92.82C82.46,27.59,72.73,28.63,68.83,22.22Z"/><polygon class="cls-2" points="23.43 19.06 35.48 27.76 23.43 27.75 13.16 19.85 11.98 27.75 1.71 27.75 4.47 11.96 14.04 11.92 13.16 18.27 25.01 11.92 36.2 11.92 23.43 19.06"/></svg>
