<svg id="Layer_1" data-name="Layer 1" xmlns="http://www.w3.org/2000/svg" width="330" height="50" viewBox="0 0 330 50"><defs><style>.cls-1{fill:#197dbd;}</style></defs><title>Logo</title><path class="cls-1" d="M147.51,19.6l-4.8,5.75h8.63Zm-86.38-.48c-6.16.75-9.93,1.83-9.6,6.23.63,8.44,24.35,7.41,24.47-.48C76.1,18.49,66.86,18.41,61.13,19.12Zm24.95,8.63c-4.59,9.14-45.15,11.12-45.59-1.92C40.05,12.43,82.14,11.47,85.6,23c5-7.32,27.28-9.2,39.72-6.71l.11,2.88S97.05,16.5,97.12,25.83c0,3.07,4.24,5,8.64,5.28a40.73,40.73,0,0,0,9.32-.46l.24-4.65L108.63,26V23.72l15.4.05,0,7.82,17.85-16.35h13l14.3,19.23H157.58l-4-5.52h-13l-6.54,5.52H115.23C102.64,34.28,90.82,35.54,86.08,27.75Z"/><polygon class="cls-1" points="30.89 23.91 45.54 34.49 30.89 34.47 18.42 24.87 16.98 34.47 4.5 34.47 7.86 15.28 19.48 15.24 18.42 22.95 32.82 15.24 46.42 15.24 30.89 23.91"/><path class="cls-1" d="M210.74,26.09a15.33,15.33,0,0,1-5.55,1.22,13.44,13.44,0,0,1-9.55-3.7,13,13,0,0,1-3.73-9A12.94,12.94,0,0,1,205,1.67a15.16,15.16,0,0,1,5.77,1.26v7.66a6.86,6.86,0,0,0-5.59-2.71,6.28,6.28,0,0,0-4.44,1.63,6.92,6.92,0,0,0-2.14,5.07,6.79,6.79,0,0,0,2,4.81,6.86,6.86,0,0,0,4.58,1.7,7.24,7.24,0,0,0,5.59-2.59Z"/><path class="cls-1" d="M230.24,7.51h-7.62v4.11h7.21v5.44h-7.21v4.26h7.62v5.44h-14V2.08h14Z"/><path class="cls-1" d="M235.72,26.76V2.08h6.4l11.8,15.09V2.08h6.4V26.76h-6.4l-11.8-15.1v15.1Z"/><path class="cls-1" d="M276.23,7.51V26.76h-6.4V7.51h-5.26V2.08h16.91V7.51Z"/><path class="cls-1" d="M299.76,7.51h-7.62v4.11h7.22v5.44h-7.22v4.26h7.62v5.44h-14V2.08h14Z"/><path class="cls-1" d="M315.23,2.08a8,8,0,0,1,6,2.18,8.1,8.1,0,0,1,2.11,5.55,7.11,7.11,0,0,1-2,5.14,6.85,6.85,0,0,1-3.41,1.7l7.74,10.11h-8l-6.14-9.48v9.48h-6.4V2.08Zm-3.59,11.06h1.22a4.83,4.83,0,0,0,3.11-1,3.08,3.08,0,0,0,.81-2.07A2.87,2.87,0,0,0,315.93,8a4.29,4.29,0,0,0-3.07-1h-1.22Z"/><path class="cls-1" d="M202,47.75a7.72,7.72,0,0,1-2.85.63,6.91,6.91,0,0,1-4.9-1.9,6.63,6.63,0,0,1-1.92-4.62,6.66,6.66,0,0,1,6.71-6.65,7.92,7.92,0,0,1,3,.65v3.93a3.52,3.52,0,0,0-2.87-1.38,3.21,3.21,0,0,0-2.28.83,3.53,3.53,0,0,0-1.1,2.6,3.49,3.49,0,0,0,1,2.47,3.54,3.54,0,0,0,2.36.88A3.73,3.73,0,0,0,202,43.86Z"/><path class="cls-1" d="M216.16,46.5a7.58,7.58,0,0,1-10,0,6.64,6.64,0,0,1,0-9.48,7.58,7.58,0,0,1,10,0,6.62,6.62,0,0,1,0,9.48Zm-7.56-7.16a3.46,3.46,0,0,0-1,2.48,3.24,3.24,0,0,0,1,2.36,3.61,3.61,0,0,0,2.57,1,3.45,3.45,0,0,0,3.57-3.42,3.41,3.41,0,0,0-1-2.43,3.76,3.76,0,0,0-2.54-1A3.65,3.65,0,0,0,208.6,39.34Z"/><path class="cls-1" d="M224.18,43.9v4.19H220.9V35.42h5.24a4.37,4.37,0,0,1,3.21,1.14,3.93,3.93,0,0,1,1.18,3.08,4.14,4.14,0,0,1-1.12,3.15,4.24,4.24,0,0,1-3.16,1.11Zm0-2.66h1.1a2.15,2.15,0,0,0,1.39-.4,1.45,1.45,0,0,0,.42-1.16,1.55,1.55,0,0,0-.38-1.14,1.94,1.94,0,0,0-1.41-.46h-1.12Z"/><path class="cls-1" d="M240.12,38.21h-3.91v2.11h3.7v2.8h-3.7V45.3h3.91v2.79h-7.2V35.42h7.2Z"/><path class="cls-1" d="M242.86,48.09V35.42h3.29l6.06,7.75V35.42h3.28V48.09h-3.28l-6.06-7.75v7.75Z"/><path class="cls-1" d="M262.09,40.15h4.75V35.42h3.3V48.09h-3.3V43h-4.75v5.13H258.8V35.42h3.29Z"/><path class="cls-1" d="M281.18,46h-4.6l-.85,2.12h-3.48l4.87-12.67h3.59l4.77,12.67H282Zm-.87-2.51-1.43-4.1-1.38,4.1Z"/><path class="cls-1" d="M293.29,40.91h6.53c0,2.51-.51,4.3-2,5.7a6.17,6.17,0,0,1-4.47,1.6,6.56,6.56,0,0,1-4.86-1.88,6.39,6.39,0,0,1-1.82-4.58,6.56,6.56,0,0,1,1.9-4.75,7.38,7.38,0,0,1,8.34-1,6.31,6.31,0,0,1,2.26,2.61L296,39.89a3.2,3.2,0,0,0-.91-1.28,2.68,2.68,0,0,0-1.77-.62,3,3,0,0,0-2.16.87,4.28,4.28,0,0,0-1.1,2.91,3.93,3.93,0,0,0,1,2.73,3,3,0,0,0,2.32,1,2.68,2.68,0,0,0,1.82-.59,2.18,2.18,0,0,0,.78-1.4h-2.69Z"/><path class="cls-1" d="M309.76,38.21h-3.92v2.11h3.71v2.8h-3.71V45.3h3.92v2.79h-7.2V35.42h7.2Z"/><path class="cls-1" d="M312.5,48.09V35.42h3.28l6.06,7.75V35.42h3.29V48.09h-3.29l-6.06-7.75v7.75Z"/><path class="cls-1" d="M176,1.08h6.37V47.72H176Z"/></svg>
